# xmcd CD database file
#
# Track frame offsets:
#	150
#	13477
#	26916
#	43097
#	54484
#	67667
#	80568
#	94527
#	107603
#	120507
#	134990
#	144490
#	157118
#	172088
#	182688
#	195725
#	212622
#	225368
#	240318
#	256185
#	268172
#	285823
#
# Disc length: 4033 seconds
#
# Revision: 0
# Processed by: cddbd v1.5.2PL0 Copyright (c) Steve Scherf et al.
# Submitted via: CDex 1.79
#
DISCID=350fbf16
DTITLE=Billy Forrest - Country Magic
DYEAR=1900
DGENRE=Country
TTITLE0=Looking for a feeling
TTITLE1=Your're my best friend
TTITLE2=The gambler
TTITLE3=Across the bridge
TTITLE4=500 Miles awayfrom home
TTITLE5=Hands
TTITLE6=He'll have to go
TTITLE7=Some broken hearts never mend
TTITLE8=Wings of a dove
TTITLE9=Making believe
TTITLE10=Turn out the light
TTITLE11=Four walls
TTITLE12=Tinybubbles
TTITLE13=Don't let me cross over
TTITLE14=Children of the wind
TTITLE15=Lucille
TTITLE16=24 Hours from Tulsa
TTITLE17=Distant drums
TTITLE18=I have you
TTITLE19=Welcome to my world
TTITLE20=For the good times
TTITLE21=The rattler
EXTD=
EXTT0=
EXTT1=
EXTT2=
EXTT3=
EXTT4=
EXTT5=
EXTT6=
EXTT7=
EXTT8=
EXTT9=
EXTT10=
EXTT11=
EXTT12=
EXTT13=
EXTT14=
EXTT15=
EXTT16=
EXTT17=
EXTT18=
EXTT19=
EXTT20=
EXTT21=
PLAYORDER=
